<svg width="1179" height="120" viewBox="0 0 1179 120" fill="none" xmlns="http://www.w3.org/2000/svg">
<rect width="1179" height="120" fill="#444444"/>
<path d="M571.125 51.8672V73H565.48V51.8672H571.125ZM565.129 46.3594C565.129 45.5391 565.415 44.862 565.988 44.3281C566.561 43.7943 567.329 43.5273 568.293 43.5273C569.243 43.5273 570.005 43.7943 570.578 44.3281C571.164 44.862 571.457 45.5391 571.457 46.3594C571.457 47.1797 571.164 47.8568 570.578 48.3906C570.005 48.9245 569.243 49.1914 568.293 49.1914C567.329 49.1914 566.561 48.9245 565.988 48.3906C565.415 47.8568 565.129 47.1797 565.129 46.3594ZM591.574 68.7812L599.27 74.875L595.578 78.0781L588 71.9844L591.574 68.7812ZM599.465 58.1172V59.4648C599.465 61.6263 599.172 63.5664 598.586 65.2852C598.013 67.0039 597.186 68.4688 596.105 69.6797C595.025 70.8776 593.749 71.7956 592.277 72.4336C590.806 73.0716 589.172 73.3906 587.375 73.3906C585.591 73.3906 583.957 73.0716 582.473 72.4336C580.988 71.7956 579.706 70.8776 578.625 69.6797C577.544 68.4688 576.704 67.0039 576.105 65.2852C575.52 63.5664 575.227 61.6263 575.227 59.4648V58.1172C575.227 55.9427 575.52 54.0026 576.105 52.2969C576.704 50.5781 577.538 49.1133 578.605 47.9023C579.673 46.6914 580.949 45.7669 582.434 45.1289C583.918 44.4909 585.552 44.1719 587.336 44.1719C589.133 44.1719 590.767 44.4909 592.238 45.1289C593.723 45.7669 595.005 46.6914 596.086 47.9023C597.167 49.1133 598 50.5781 598.586 52.2969C599.172 54.0026 599.465 55.9427 599.465 58.1172ZM593.547 59.4648V58.0781C593.547 56.5677 593.404 55.2396 593.117 54.0938C592.844 52.9479 592.44 51.9844 591.906 51.2031C591.385 50.4219 590.741 49.8359 589.973 49.4453C589.204 49.0417 588.326 48.8398 587.336 48.8398C586.346 48.8398 585.467 49.0417 584.699 49.4453C583.931 49.8359 583.286 50.4219 582.766 51.2031C582.245 51.9844 581.848 52.9479 581.574 54.0938C581.301 55.2396 581.164 56.5677 581.164 58.0781V59.4648C581.164 60.9622 581.301 62.2904 581.574 63.4492C581.848 64.5951 582.245 65.5651 582.766 66.3594C583.299 67.1406 583.951 67.7331 584.719 68.1367C585.5 68.5404 586.385 68.7422 587.375 68.7422C588.365 68.7422 589.237 68.5404 589.992 68.1367C590.76 67.7331 591.405 67.1406 591.926 66.3594C592.46 65.5651 592.863 64.5951 593.137 63.4492C593.41 62.2904 593.547 60.9622 593.547 59.4648ZM608.977 56.2422V73H603.332V51.8672H608.625L608.977 56.2422ZM608.195 61.6914H606.633C606.633 60.2201 606.809 58.8659 607.16 57.6289C607.525 56.3789 608.052 55.2982 608.742 54.3867C609.445 53.4622 610.311 52.7461 611.34 52.2383C612.368 51.7305 613.56 51.4766 614.914 51.4766C615.852 51.4766 616.711 51.6198 617.492 51.9062C618.273 52.1797 618.944 52.6159 619.504 53.2148C620.077 53.8008 620.52 54.569 620.832 55.5195C621.145 56.457 621.301 57.5833 621.301 58.8984V73H615.676V59.5234C615.676 58.5599 615.546 57.8177 615.285 57.2969C615.025 56.776 614.654 56.4115 614.172 56.2031C613.703 55.9948 613.137 55.8906 612.473 55.8906C611.743 55.8906 611.105 56.0404 610.559 56.3398C610.025 56.6393 609.582 57.056 609.23 57.5898C608.879 58.1107 608.618 58.7227 608.449 59.4258C608.28 60.1289 608.195 60.8841 608.195 61.6914ZM620.773 61.0469L618.762 61.3008C618.762 59.9206 618.931 58.638 619.27 57.4531C619.621 56.2682 620.135 55.2266 620.812 54.3281C621.503 53.4297 622.355 52.7331 623.371 52.2383C624.387 51.7305 625.559 51.4766 626.887 51.4766C627.902 51.4766 628.827 51.6263 629.66 51.9258C630.493 52.2122 631.203 52.6745 631.789 53.3125C632.388 53.9375 632.844 54.7578 633.156 55.7734C633.482 56.7891 633.645 58.0326 633.645 59.5039V73H628V59.5039C628 58.5273 627.87 57.7852 627.609 57.2773C627.362 56.7565 626.997 56.3984 626.516 56.2031C626.047 55.9948 625.487 55.8906 624.836 55.8906C624.159 55.8906 623.566 56.0273 623.059 56.3008C622.551 56.5612 622.128 56.9258 621.789 57.3945C621.451 57.8633 621.197 58.4102 621.027 59.0352C620.858 59.6471 620.773 60.3177 620.773 61.0469ZM647.727 73.3906C646.086 73.3906 644.615 73.1302 643.312 72.6094C642.01 72.0755 640.904 71.3398 639.992 70.4023C639.094 69.4648 638.404 68.3776 637.922 67.1406C637.44 65.8906 637.199 64.5625 637.199 63.1562V62.375C637.199 60.7734 637.427 59.3086 637.883 57.9805C638.339 56.6523 638.99 55.5 639.836 54.5234C640.695 53.5469 641.737 52.7982 642.961 52.2773C644.185 51.7435 645.565 51.4766 647.102 51.4766C648.599 51.4766 649.927 51.724 651.086 52.2188C652.245 52.7135 653.215 53.4167 653.996 54.3281C654.79 55.2396 655.389 56.3333 655.793 57.6094C656.197 58.8724 656.398 60.2786 656.398 61.8281V64.1719H639.602V60.4219H650.871V59.9922C650.871 59.2109 650.728 58.5143 650.441 57.9023C650.168 57.2773 649.751 56.7826 649.191 56.418C648.632 56.0534 647.915 55.8711 647.043 55.8711C646.301 55.8711 645.663 56.0339 645.129 56.3594C644.595 56.6849 644.159 57.1406 643.82 57.7266C643.495 58.3125 643.247 59.0026 643.078 59.7969C642.922 60.5781 642.844 61.4375 642.844 62.375V63.1562C642.844 64.0026 642.961 64.7839 643.195 65.5C643.443 66.2161 643.788 66.8346 644.23 67.3555C644.686 67.8763 645.233 68.2799 645.871 68.5664C646.522 68.8529 647.258 68.9961 648.078 68.9961C649.094 68.9961 650.038 68.8008 650.91 68.4102C651.796 68.0065 652.557 67.401 653.195 66.5938L655.93 69.5625C655.487 70.2005 654.882 70.8125 654.113 71.3984C653.358 71.9844 652.447 72.4661 651.379 72.8438C650.311 73.2083 649.094 73.3906 647.727 73.3906ZM665.109 56.3789V73H659.484V51.8672H664.758L665.109 56.3789ZM664.289 61.6914H662.766C662.766 60.1289 662.967 58.7227 663.371 57.4727C663.775 56.2096 664.341 55.1354 665.07 54.25C665.799 53.3516 666.665 52.668 667.668 52.1992C668.684 51.7174 669.816 51.4766 671.066 51.4766C672.056 51.4766 672.961 51.6198 673.781 51.9062C674.602 52.1927 675.305 52.6484 675.891 53.2734C676.49 53.8984 676.945 54.7253 677.258 55.7539C677.583 56.7826 677.746 58.0391 677.746 59.5234V73H672.082V59.5039C672.082 58.5664 671.952 57.8372 671.691 57.3164C671.431 56.7956 671.047 56.431 670.539 56.2227C670.044 56.0013 669.432 55.8906 668.703 55.8906C667.948 55.8906 667.29 56.0404 666.73 56.3398C666.184 56.6393 665.728 57.056 665.363 57.5898C665.012 58.1107 664.745 58.7227 664.562 59.4258C664.38 60.1289 664.289 60.8841 664.289 61.6914ZM694.523 67.9414V51.8672H700.148V73H694.855L694.523 67.9414ZM695.148 63.6055L696.809 63.5664C696.809 64.9727 696.646 66.2812 696.32 67.4922C695.995 68.6901 695.507 69.7318 694.855 70.6172C694.204 71.4896 693.384 72.1732 692.395 72.668C691.405 73.1497 690.24 73.3906 688.898 73.3906C687.87 73.3906 686.919 73.2474 686.047 72.9609C685.188 72.6615 684.445 72.1992 683.82 71.5742C683.208 70.9362 682.727 70.1224 682.375 69.1328C682.036 68.1302 681.867 66.9258 681.867 65.5195V51.8672H687.492V65.5586C687.492 66.1836 687.564 66.7109 687.707 67.1406C687.863 67.5703 688.078 67.9219 688.352 68.1953C688.625 68.4688 688.944 68.6641 689.309 68.7812C689.686 68.8984 690.103 68.957 690.559 68.957C691.717 68.957 692.629 68.7227 693.293 68.2539C693.97 67.7852 694.445 67.1471 694.719 66.3398C695.005 65.5195 695.148 64.6081 695.148 63.6055Z" fill="white"/>
<path d="M514.944 41.232C517.088 41.232 519.072 41.584 520.896 42.288C522.72 42.992 524.288 44.016 525.6 45.36C526.944 46.672 527.984 48.304 528.72 50.256C529.488 52.208 529.872 54.432 529.872 56.928C529.872 60.448 529.088 63.472 527.52 66C525.984 68.528 523.808 70.56 520.992 72.096L515.376 75.216C516.08 75.28 516.752 75.408 517.392 75.6C518.064 75.824 518.752 76.048 519.456 76.272C520.192 76.528 520.944 76.752 521.712 76.944C522.512 77.136 523.392 77.232 524.352 77.232C525.152 77.232 525.936 77.104 526.704 76.848C527.472 76.592 528.096 76.272 528.576 75.888L530.88 80.304C530.336 80.752 529.52 81.2 528.432 81.648C527.344 82.096 526.032 82.32 524.496 82.32C523.152 82.32 521.888 82.16 520.704 81.84C519.52 81.552 518.384 81.216 517.296 80.832C516.208 80.48 515.152 80.144 514.128 79.824C513.104 79.536 512.064 79.392 511.008 79.392C510.048 79.392 509.184 79.488 508.416 79.68C507.648 79.904 506.864 80.256 506.064 80.736L503.856 76.608L511.632 72.144C508.048 71.504 505.2 69.872 503.088 67.248C500.976 64.624 499.92 61.184 499.92 56.928C499.92 54.496 500.288 52.32 501.024 50.4C501.792 48.448 502.848 46.8 504.192 45.456C505.536 44.08 507.12 43.04 508.944 42.336C510.8 41.6 512.8 41.232 514.944 41.232ZM506.88 56.88C506.88 58.672 507.088 60.24 507.504 61.584C507.92 62.928 508.48 64.064 509.184 64.992C509.888 65.888 510.72 66.56 511.68 67.008C512.64 67.456 513.68 67.68 514.8 67.68C515.952 67.68 517.008 67.456 517.968 67.008C518.96 66.528 519.824 65.84 520.56 64.944C521.296 64.016 521.872 62.88 522.288 61.536C522.704 60.192 522.912 58.64 522.912 56.88C522.912 55.024 522.688 53.424 522.24 52.08C521.824 50.736 521.248 49.632 520.512 48.768C519.808 47.904 518.96 47.264 517.968 46.848C516.976 46.432 515.936 46.224 514.848 46.224C513.728 46.224 512.688 46.448 511.728 46.896C510.768 47.312 509.92 47.968 509.184 48.864C508.48 49.76 507.92 50.88 507.504 52.224C507.088 53.536 506.88 55.088 506.88 56.88Z" fill="white"/>
<circle cx="515" cy="60" r="33.5" stroke="white" stroke-width="5"/>
</svg>
