<svg width="80" height="80" viewBox="0 0 80 80" fill="none" xmlns="http://www.w3.org/2000/svg">
<rect width="80" height="80" fill="#444444"/>
<path d="M39.944 21.232C42.088 21.232 44.072 21.584 45.896 22.288C47.72 22.992 49.288 24.016 50.6 25.36C51.944 26.672 52.984 28.304 53.72 30.256C54.488 32.208 54.872 34.432 54.872 36.928C54.872 40.448 54.088 43.472 52.52 46C50.984 48.528 48.808 50.56 45.992 52.096L40.376 55.216C41.08 55.28 41.752 55.408 42.392 55.6C43.064 55.824 43.752 56.048 44.456 56.272C45.192 56.528 45.944 56.752 46.712 56.944C47.512 57.136 48.392 57.232 49.352 57.232C50.152 57.232 50.936 57.104 51.704 56.848C52.472 56.592 53.096 56.272 53.576 55.888L55.88 60.304C55.336 60.752 54.52 61.2 53.432 61.648C52.344 62.096 51.032 62.32 49.496 62.32C48.152 62.32 46.888 62.16 45.704 61.84C44.52 61.552 43.384 61.216 42.296 60.832C41.208 60.48 40.152 60.144 39.128 59.824C38.104 59.536 37.064 59.392 36.008 59.392C35.048 59.392 34.184 59.488 33.416 59.68C32.648 59.904 31.864 60.256 31.064 60.736L28.856 56.608L36.632 52.144C33.048 51.504 30.2 49.872 28.088 47.248C25.976 44.624 24.92 41.184 24.92 36.928C24.92 34.496 25.288 32.32 26.024 30.4C26.792 28.448 27.848 26.8 29.192 25.456C30.536 24.08 32.12 23.04 33.944 22.336C35.8 21.6 37.8 21.232 39.944 21.232ZM31.88 36.88C31.88 38.672 32.088 40.24 32.504 41.584C32.92 42.928 33.48 44.064 34.184 44.992C34.888 45.888 35.72 46.56 36.68 47.008C37.64 47.456 38.68 47.68 39.8 47.68C40.952 47.68 42.008 47.456 42.968 47.008C43.96 46.528 44.824 45.84 45.56 44.944C46.296 44.016 46.872 42.88 47.288 41.536C47.704 40.192 47.912 38.64 47.912 36.88C47.912 35.024 47.688 33.424 47.24 32.08C46.824 30.736 46.248 29.632 45.512 28.768C44.808 27.904 43.96 27.264 42.968 26.848C41.976 26.432 40.936 26.224 39.848 26.224C38.728 26.224 37.688 26.448 36.728 26.896C35.768 27.312 34.92 27.968 34.184 28.864C33.48 29.76 32.92 30.88 32.504 32.224C32.088 33.536 31.88 35.088 31.88 36.88Z" fill="white"/>
<circle cx="40" cy="40" r="33.5" stroke="white" stroke-width="5"/>
</svg>
